<svg id="Layer_1" data-name="Layer 1" xmlns="http://www.w3.org/2000/svg" viewBox="0 0 317.72 309.78"><defs><style>.cls-1{fill:#00005b;}.cls-2{fill:#99f;}</style></defs><g id="Layer_2_1_-8" data-name="Layer 2 1 -8"><g id="Surfaces"><g id="Video_Audio_Surface" data-name="Video Audio Surface"><g id="Outline_no_shadow-3" data-name="Outline no shadow-3"><path id="path2194" class="cls-1" d="M57.4,1.36H262.6a56.21,56.21,0,0,1,56.26,56.26V254.88a56.21,56.21,0,0,1-56.26,56.26H57.4A56.21,56.21,0,0,1,1.14,254.88V57.62A56.21,56.21,0,0,1,57.4,1.36Z" transform="translate(-1.14 -1.36)"/></g></g></g><g id="Outlined_Mnemonics_Logos" data-name="Outlined Mnemonics Logos"><g id="Ae"><path id="path2199" class="cls-2" d="M128.76,186.7H79.51L69.45,217.94a2.3,2.3,0,0,1-2.51,1.85H42.05c-1.46,0-1.86-.79-1.46-2.38L83.22,95.22c.39-1.32.79-2.51,1.32-4.1a46.28,46.28,0,0,0,.8-8.61,1.3,1.3,0,0,1,1.06-1.45h34.28c.93,0,1.59.39,1.72,1l48.32,135.7c.4,1.45,0,2.12-1.32,2.12H141.73a2,2,0,0,1-2.12-1.46ZM87.19,160.35h33.62c-.79-2.78-1.85-6.09-3-9.53s-2.38-7.41-3.57-11.38-2.52-8.08-3.84-12.18-2.52-8-3.58-11.78-2-7.15-2.91-10.33h-.26a163.78,163.78,0,0,1-4.51,17.08c-2,6.35-4,13-6.09,19.59-1.72,6.75-3.83,13-5.82,18.53Z" transform="translate(-1.14 -1.36)"/><path id="path2201" class="cls-2" d="M249.23,174.52h-42a29.17,29.17,0,0,0,4.1,11.78,21,21,0,0,0,9.67,7.94A41,41,0,0,0,238,197.55a80,80,0,0,0,13.77-1.45,49.39,49.39,0,0,0,11.78-3c.66-.53,1.06-.26,1.06,1.06v20.26a6.69,6.69,0,0,1-.26,1.58,3.06,3.06,0,0,1-.93.93,56.42,56.42,0,0,1-13.24,4,89.62,89.62,0,0,1-18.79,1.59c-10.07,0-18.54-1.59-25.42-4.63a44.52,44.52,0,0,1-16.68-12.58,48.64,48.64,0,0,1-9.14-17.34,68.59,68.59,0,0,1,.53-40.38,54,54,0,0,1,9.93-18.13,47.91,47.91,0,0,1,16-12.58c6.22-3,13.64-4.11,22.11-4.11a47.93,47.93,0,0,1,20.52,4.11,36.55,36.55,0,0,1,13.9,10.59,48.46,48.46,0,0,1,7.94,15.09,52.1,52.1,0,0,1,2.51,16.15c0,3.18-.13,6-.26,8.48s-.4,4.36-.53,5.55a2,2,0,0,1-1.85,1.73c-.8,0-2.25.13-4.37.26a61.56,61.56,0,0,1-7.68.4c-3,0-6.22-.53-9.66-.53Zm-42-19.33h27.93c3.45,0,6,0,7.55-.13a6.42,6.42,0,0,0,3-1.06v-1.32a15.15,15.15,0,0,0-.79-4.9,17.51,17.51,0,0,0-17.21-12.18,18.65,18.65,0,0,0-17.61,10.06A27.42,27.42,0,0,0,207.26,155.19Z" transform="translate(-1.14 -1.36)"/></g></g></g></svg>