<svg id="Layer_1" data-name="Layer 1" xmlns="http://www.w3.org/2000/svg" xmlns:xlink="http://www.w3.org/1999/xlink" viewBox="0 0 80.94 113.39"><defs><style>.cls-1{fill:#2062af;}.cls-2{fill:#3c9cd7;}.cls-10,.cls-3{fill:#231f20;}.cls-4{fill:#fff;}.cls-5{fill:url(#linear-gradient);}.cls-6{fill:url(#linear-gradient-2);}.cls-7{fill:url(#linear-gradient-3);}.cls-10,.cls-8{opacity:0.05;}.cls-9{fill:url(#linear-gradient-4);}</style><linearGradient id="linear-gradient" x1="28.67" y1="69.04" x2="28.67" y2="49.54" gradientUnits="userSpaceOnUse"><stop offset="0.39" stop-color="#d1d3d4" stop-opacity="0"/><stop offset="1" stop-color="#d1d3d4"/></linearGradient><linearGradient id="linear-gradient-2" x1="53.05" y1="59.32" x2="53.05" y2="39.04" xlink:href="#linear-gradient"/><linearGradient id="linear-gradient-3" x1="16.94" y1="77.75" x2="63.79" y2="77.75" gradientUnits="userSpaceOnUse"><stop offset="0" stop-color="#e8e7e5"/><stop offset="1" stop-color="#fff"/></linearGradient><linearGradient id="linear-gradient-4" x1="14.79" y1="44" x2="65.65" y2="44" xlink:href="#linear-gradient-3"/></defs><polygon class="cls-1" points="73.35 104.53 40.47 113.39 7.59 104.53 0 22.32 80.94 22.32 73.35 104.53"/><polygon class="cls-2" points="40.47 28.98 40.47 106.32 40.55 106.34 67.16 99.18 73.3 28.98 40.47 28.98"/><polygon class="cls-3" points="21.81 10.25 21.81 5.35 28.95 5.35 28.95 0 16.45 0 16.45 15.13 28.95 15.13 28.95 10.25 21.81 10.25"/><path class="cls-3" d="M72.18,19.53h5V14.17H64.68v5.36c1.67,1.67,2.54,2.47,5,4.89h-5v4.89h12.5V24.42Z" transform="translate(-30.39 -14.17)"/><path class="cls-3" d="M89.89,19.53h5V14.17H82.39v5.36c1.67,1.67,2.54,2.47,5,4.89h-5v4.89H94.88V24.42Z" transform="translate(-30.39 -14.17)"/><polygon class="cls-4" points="40.44 49.54 16.91 59.34 17.69 69.04 40.44 59.32 64.65 48.97 65.65 39.04 40.44 49.54"/><polygon class="cls-5" points="16.91 59.34 17.69 69.04 40.44 59.32 40.44 49.54 16.91 59.34"/><polygon class="cls-6" points="65.65 39.04 40.44 49.54 40.44 59.32 64.65 48.97 65.65 39.04"/><polygon class="cls-7" points="16.94 59.34 17.72 69.04 52.64 69.16 51.86 82.09 40.37 85.33 29.32 82.54 28.65 74.51 18.39 74.51 19.73 90.02 40.48 96.15 61.12 90.13 63.79 59.34 16.94 59.34"/><g class="cls-8"><polygon class="cls-3" points="40.44 59.34 16.91 59.34 17.69 69.04 40.44 69.12 40.44 59.34"/><polygon class="cls-3" points="40.44 85.3 40.33 85.33 29.29 82.54 28.62 74.51 18.36 74.51 19.7 90.02 40.44 96.15 40.44 85.3"/></g><polygon class="cls-9" points="14.79 39.04 65.65 39.04 64.65 48.97 16.02 48.97 14.79 39.04"/><polygon class="cls-10" points="40.44 39.04 14.79 39.04 16.02 48.97 40.44 48.97 40.44 39.04"/></svg>