<svg id="Layer_1" data-name="Layer 1" xmlns="http://www.w3.org/2000/svg" viewBox="0 0 433.58 612"><defs><style>.cls-1{fill:#e44d26;}.cls-2{fill:#f16529;}.cls-3{fill:#ebebeb;}.cls-4{fill:#fff;}</style></defs><polygon class="cls-1" points="39.46 562.85 0 120.27 433.58 120.27 394.08 562.77 216.52 612 39.46 562.85"/><polygon class="cls-2" points="216.79 574.38 360.26 534.6 394.02 156.46 216.79 156.46 216.79 574.38"/><polygon class="cls-3" points="216.79 320.6 144.96 320.6 140 265.02 216.79 265.02 216.79 210.74 216.6 210.74 80.68 210.74 81.98 225.3 95.32 374.88 216.79 374.88 216.79 320.6"/><polygon class="cls-3" points="216.79 461.57 216.55 461.64 156.1 445.31 152.24 402.02 122.86 402.02 97.75 402.02 105.35 487.25 216.54 518.12 216.79 518.05 216.79 461.57"/><path d="M129.55,90h27.58v27.25h25.24V90H210v82.53H182.37V144.89H157.14v27.64H129.55V90Z" transform="translate(-89.21 -90)"/><path d="M246.23,117.37H221.94V90h76.17v27.37h-24.3v55.16H246.23V117.37Z" transform="translate(-89.21 -90)"/><path d="M310.2,90H339l17.69,29,17.68-29H403.1v82.53H375.63V131.62l-19,29.35h-.47l-19-29.35v40.91h-27Z" transform="translate(-89.21 -90)"/><path d="M416.83,90h27.59v55.25h38.79v27.28H416.83Z" transform="translate(-89.21 -90)"/><polygon class="cls-4" points="216.6 320.6 216.6 374.88 283.44 374.88 277.14 445.28 216.6 461.62 216.6 518.09 327.88 487.25 328.69 478.08 341.45 335.18 342.77 320.6 328.15 320.6 216.6 320.6"/><polygon class="cls-4" points="216.6 210.74 216.6 244.45 216.6 264.89 216.6 265.02 347.54 265.02 347.54 265.02 347.71 265.02 348.8 252.82 351.27 225.3 352.57 210.74 216.6 210.74"/></svg>