<svg id="图层_1" data-name="图层 1" xmlns="http://www.w3.org/2000/svg" viewBox="0 0 56.86 80.26"><defs><style>.cls-1{fill:#4b4b4d;}.cls-2{fill:#f48131;}.cls-3{fill:#f99c35;}.cls-4{fill:#231f20;fill-rule:evenodd;}.cls-5{fill:#fff;}.cls-6{fill:#ebebec;}</style></defs><polyline class="cls-1" points="28.39 80.26 5.18 73.81 0 15.77 56.86 15.77 51.68 73.8"/><polyline class="cls-1" points="47.25 70.11 51.67 20.52 28.43 20.52 28.43 75.32"/><polyline class="cls-1" points="29.92 0 29.92 2.93 33.03 7.32 30.16 7.32 30.16 10.82 38.76 10.82 38.76 7.49 35.89 3.82 38.76 3.82 38.76 0"/><polyline class="cls-1" points="29.72 27.64 29.72 34.75 45.63 34.41 46.23 27.64"/><polyline class="cls-1" points="43.03 42.05 29.72 42.05 29.72 49.16 38.8 48.57 37.98 58.1 29.72 60.18 29.72 67.58 43 63.9 43.1 62.7 44.78 43.95 44.95 42.05"/><polyline class="cls-1" points="35.6 45.7 29.72 45.7 29.72 31.2 36.25 31.2"/><polyline class="cls-1" points="26.91 60.13 17.7 57.52 17.41 53.53 12.82 52.72 13.81 63.9 26.91 67.53"/><polyline class="cls-1" points="26.91 27.64 20.86 27.64 22.12 64.11 26.91 64.11"/><polyline class="cls-1" points="23.19 0 23.19 7.25 21.72 7.25 21.72 5.9 18.1 5.9 18.1 10.82 26.81 10.82 26.81 0"/><polyline class="cls-2" points="28.39 80.26 5.18 73.81 0 15.77 56.86 15.77 51.68 73.8"/><polyline class="cls-3" points="47.25 70.11 51.67 20.52 28.43 20.52 28.43 75.32"/><polyline class="cls-4" points="29.92 0 29.92 2.93 33.03 7.32 30.16 7.32 30.16 10.82 38.76 10.82 38.76 7.49 35.89 3.82 38.76 3.82 38.76 0"/><polyline class="cls-5" points="29.72 27.64 29.72 34.75 45.63 34.41 46.23 27.64"/><polyline class="cls-5" points="43.03 42.05 29.72 42.05 29.72 49.16 38.8 48.57 37.98 58.1 29.72 60.18 29.72 67.58 43 63.9 43.1 62.7 44.78 43.95 44.95 42.05"/><polyline class="cls-5" points="35.6 45.7 29.72 45.7 29.72 31.2 36.25 31.2"/><polyline class="cls-6" points="26.91 60.13 17.7 57.52 17.41 53.53 12.82 52.72 13.81 63.9 26.91 67.53"/><polyline class="cls-6" points="26.91 27.64 20.86 27.64 22.12 64.11 26.91 64.11"/><polyline class="cls-4" points="23.19 0 23.19 7.25 21.72 7.25 21.72 5.9 18.1 5.9 18.1 10.82 26.81 10.82 26.81 0"/></svg>