<?xml version="1.0" encoding="UTF-8" standalone="no"?>
<svg id="svg4137" xmlns:rdf="http://www.w3.org/1999/02/22-rdf-syntax-ns#" xmlns="http://www.w3.org/2000/svg" height="2350.9" viewBox="0 0 3352.0467 2350.8748" width="3352" version="1.1" xmlns:cc="http://creativecommons.org/ns#" xmlns:dc="http://purl.org/dc/elements/1.1/">
<defs id="defs4141">
<filter id="filter4699" style="color-interpolation-filters:sRGB" height="1.0203" width="1.0293" y="-.010171" x="-.014630">
<feGaussianBlur id="feGaussianBlur4701" stdDeviation="13.923148"/>
</filter>
</defs>
<g id="g4146">
<path id="path4689" d="m82.308 3282.2c-0.989-39.5-35.333-76.2-71.441-76.2h-4.84v-41.5-41.5h3.5422c92.315 0 95.886-150.89 3.7559-158.68l-7.2981-0.6169v-32.673-32.673l8.8309-1.1757c88.423-11.773 89.723-143.65 1.5575-157.99l-10.386-1.7v-36.75-36.75h3.5422c92.358 0 95.93-150.88 3.7559-158.68l-7.2981-0.6169v-41.353-41.353h3.5422c32.139 0 63.994-28.277 71.534-63.5 9.82-45.9-27.203-95.5-71.26-95.5h-3.8163v-41.362-41.362l6.75-0.6838c91.162-9.2343 91.652-150.57 0.5481-158.27l-7.2981-0.6169v-41.206-41.206l7.385-0.6243c90.231-7.6273 90.222-150.71-0.011-158.34l-7.3744-0.6234v-36.728-36.728l3.125-0.625c1.7187-0.3437 4.3367-0.625 5.8176-0.625 15.126 0 39.423-14.074 50.863-29.463 36.836-49.549 8.7414-120.77-50.766-128.69l-9.0395-1.2035v-40.703-40.703l2.25-0.603c1.2375-0.3317 3.7962-0.6091 5.6861-0.6166 16.181-0.064 39.8-13.527 51.767-29.507 37.492-50.063 7.6121-122.91-52.954-129.09l-6.75-0.6896v-36.682-36.682l8.8309-1.1757c89.495-11.916 88.546-150.57-1.0809-157.85l-7.75-0.6295v-41.214-41.214l6.3299-0.64852c92.07-9.5 90.76-158.69-1.395-158.69h-4.938v-37.5-37.5h5.34c91.384 0 92.718-150.07 1.41-158.65l-6.75-0.63475v-32.71-32.71l7.25-0.61685c91.283-7.77 88.713-158.68-2.698-158.68h-4.5526v-32.79-32.79l10.298-1.6335c88.403-14.023 86.169-151.44-2.5612-157.54l-7.763-0.54 0.2633-33.1 0.2633-33.11 7.5-0.62505c32.938-2.745 62.331-31.558 67.525-66.194l0.702-4.681h47.271 47.271l0.6629 5.3058c10.95 87.639 135.92 86.352 151.01-1.556l0.644-3.75h40.26 40.26l1.2244 7.25c14.002 82.909 130.79 84.897 149.36 2.5429l2.21-9.793h36.299 36.299v2.34c0 9.6788 8.5936 29.835 17.328 40.644 40.863 50.564 120.38 29.68 133.36-35.025l1.59-7.959h36.163 36.163l1.2244 7.25c14.148 83.778 133.05 84.479 149.82 0.8843l1.6-8.134h36.154 36.154l1.2218 7.1251c14.55 84.85 135.48 84.23 150.28-0.76985l1.1-6.355h36.397 36.397v2.3117c0 14.445 13.656 39.571 27.915 51.362 45.258 37.423 112.93 11.535 123.15-47.106l1.1-6.568h40.172 40.172l1.7914 8.75c13.295 64.937 94.403 84.776 134.14 32.81 8.2025-10.728 16.523-30.729 16.523-39.72 0-1.7487 1.6-1.84 32.3-1.84h32.275l1.7191 8.3518c15.164 73.667 111.24 86.001 143.27 18.392 3.2523-6.8649 7.4638-20.917 7.4638-24.904 0-1.7563 1.9-1.84 40.4-1.84h40.386l0.7019 4.6808c13.122 87.501 137.93 87.501 151.05 0l0.7-4.681 32.136 0.0001022 32.136 0.0001022 0.1774 10.25c0.7219 41.71 34.737 77.65 73.573 77.735l6.75 0.01478v33.031c0 25.576-0.2821 33.109-1.25 33.373-0.6875 0.18811-4.175 0.8824-7.75 1.5429-80.196 14.816-79.773 140.34 0.5257 155.91l8.4677 1.6422v37.205 37.205l-3.75 0.64403c-53.208 9.1381-81.66 65.77-57.75 114.95 11.576 23.808 29.363 36.816 58.75 42.963l2.75 0.57524v32.936 32.936l-3.75 0.59531c-85.611 13.591-87.911 141.56-2.8351 157.7l6.5851 1.2492v37.169 37.169l-6.6022 1.1497c-83.37 14.518-82.649 147.04 0.8522 156.65l5.75 0.6616v41.768 41.768l-6.75 1.1726c-83.357 14.481-82.634 144.77 0.8708 156.79l5.3792 0.7739 0.2618 37.513 0.2618 37.513-6.8291 1.0753c-52.942 8.3364-80.993 76.343-50.392 122.17 13.163 19.714 37.111 35.198 54.439 35.198h2.781l-0.2609 41.694-0.261 41.694-7.5 1.3684c-51.829 9.4559-78.704 73.815-50.328 120.53 11.652 19.182 38.186 36.718 55.558 36.718h2.7701v37.455 37.455l-3.75 0.6161c-88.653 14.565-87.852 141.13 1 157.99l2.75 0.5217v41.436 41.436l-3.75 0.6161c-89.183 14.652-87.988 140.61 1.5 158.07l2.25 0.4391v41.462 41.462l-2.75 0.5217c-40.865 7.7524-67.25 38.754-67.25 79.016 0 40.3 26.347 71.257 67.25 79.016l2.75 0.5217v41.462 41.462l-2.75 0.5217c-88.901 16.865-89.702 143.42-1 157.99l3.75 0.6161v37.205 37.205l-8.4677 1.6422c-80.17 15.548-80.594 141.31-0.5257 155.92 3.575 0.6523 7.0625 1.34 7.75 1.5281 0.9678 0.2648 1.25 7.7883 1.25 33.328v32.986l-3.75 0.6161c-86.557 14.22-88.16 140.47-2 157.48l5.75 1.1355v36.785 36.785l-8.25 0.6847c-36.224 3.0064-62.939 27.718-71.193 65.853l-0.5952 2.75h-32.462-32.462l-0.5952-2.75c-8.6786-40.097-37.999-65.588-75.443-65.588-37.472 0-66.758 25.46-75.443 65.588l-0.5952 2.75h-40.512c-31.573 0-40.583-0.2758-40.832-1.25-0.1758-0.6875-1.0699-4.4-1.9868-8.25-18.498-77.675-130.95-77.294-147.63 0.5-0.6483 3.025-1.3948 6.2875-1.6588 7.25-0.6214 2.2652-65.151 2.7561-65.728 0.5-0.1758-0.6875-1.0699-4.4-1.9868-8.25-19.507-81.91-130.98-76.863-149.07 6.75l-0.5952 2.75h-40.512c-31.547 0-40.594-0.2766-40.88-1.25-0.202-0.6875-1.0832-4.4-1.9582-8.25-16.419-72.239-116.12-79.512-143.92-10.5-2.3703 5.8827-3.1087 8.3769-5.1071 17.25l-0.6193 2.75h-36.512c-28.347 0-36.594-0.2795-36.88-1.25-0.202-0.6875-1.094-4.4-1.9823-8.25-18.36-79.578-132.17-76.705-148.56 3.75l-1.1713 5.75h-36.46c-28.306 0-36.543-0.2796-36.828-1.25-0.202-0.6875-1.0915-4.3747-1.9768-8.1939-18.104-78.1-134.98-76.566-148.1 1.9439-1.3938 8.3435 2.7505 7.5559-38.214 7.2622l-36.578-0.2622-1.8149-7.6926c-19.11-80.998-132.04-79.136-148.85 2.4548l-1.1867 5.7623-36.576-0.2623-36.576-0.2622-1.8149-7.6926c-19.112-81.007-132.04-79.154-148.84 2.4426l-1.1841 5.75h-40.701-40.701l-1.2337-6.5037c-15.555-81.999-132.26-81.41-149.18 0.7537l-1.1841 5.75-47.179-0.01-47.179-0.01-0.2185-8.7446z" transform="matrix(0 1 1 0 27.416 27.416)" filter="url(#filter4699)"/>
<path id="path4687" d="m3303.7 103.72c-39.592-0.9891-76.244-35.333-76.244-71.442v-4.84h-41.5-41.5v3.5422c0 92.315-150.89 95.886-158.68 3.7559l-0.6169-7.2981h-32.673-32.673l-1.1757 8.8309c-11.773 88.423-143.65 89.723-157.99 1.5575l-1.6896-10.385h-36.75-36.75v3.5422c0 92.358-150.88 95.93-158.68 3.7559l-0.6169-7.2981h-41.353-41.353v3.5422c0 32.139-28.277 63.994-63.5 71.534-45.882 9.8209-95.5-27.203-95.5-71.259v-3.8163h-41.362-41.362l-0.6838 6.75c-9.2343 91.163-150.57 91.652-158.27 0.5481l-0.6169-7.2981h-41.206-41.206l-0.6243 7.385c-7.6273 90.231-150.71 90.222-158.34-0.011l-0.6234-7.3744h-36.728-36.728l-0.625 3.125c-0.3437 1.7188-0.625 4.3367-0.625 5.8176 0 15.126-14.074 39.423-29.463 50.863-49.549 36.837-120.77 8.7414-128.69-50.766l-1.2035-9.0395h-40.703-40.703l-0.603 2.25c-0.3317 1.2375-0.6091 3.7963-0.6166 5.6861-0.064 16.181-13.527 39.8-29.507 51.767-50.063 37.492-122.91 7.6121-129.09-52.954l-0.6896-6.75h-36.682-36.682l-1.1757 8.8309c-11.916 89.495-150.57 88.546-157.85-1.0809l-0.6295-7.75h-41.214-41.214l-0.6485 6.3299c-9.4334 92.073-158.63 90.764-158.63-1.3948v-4.938h-37.5-37.5v5.34c0 91.384-150.07 92.718-158.65 1.41l-0.63475-6.75h-32.71-32.71l-0.61685 7.25c-7.7664 91.281-158.68 88.716-158.68-2.6974v-4.5526h-32.79-32.79l-1.6335 10.298c-14.08 88.404-151.5 86.174-157.6-2.557l-0.53355-7.7633-33.106 0.2633-33.106 0.2633-0.62505 7.5c-2.7451 32.939-31.558 62.331-66.194 67.525l-4.6808 0.7019v47.271 47.271l5.3058 0.6629c87.639 10.95 86.352 135.92-1.5558 151.01l-3.75 0.644v40.26 40.26l7.25 1.2244c82.909 14.002 84.897 130.79 2.5429 149.36l-9.7929 2.2085v36.299 36.299h2.34c9.6788 0 29.835 8.5936 40.644 17.328 50.564 40.863 29.68 120.38-35.025 133.36l-7.9591 1.5963v36.163 36.163l7.25 1.2244c83.778 14.148 84.479 133.05 0.8843 149.82l-8.1343 1.6315v36.154 36.154l7.1251 1.2218c84.85 14.55 84.23 135.48-0.76985 150.28l-6.3553 1.1067v36.397 36.397h2.3117c14.445 0 39.571 13.656 51.362 27.915 37.423 45.258 11.535 112.93-47.106 123.15l-6.5676 1.1437v40.172 40.172l8.75 1.7914c64.937 13.295 84.776 94.403 32.81 134.14-10.728 8.2025-30.729 16.523-39.72 16.523-1.7487 0-1.84 1.6019-1.84 32.275v32.275l8.3518 1.7191c73.667 15.164 86.001 111.24 18.392 143.27-6.8649 3.2523-20.917 7.4638-24.904 7.4638-1.7563 0-1.84 1.837-1.84 40.386v40.386l4.6808 0.7019c87.501 13.122 87.501 137.93 0 151.05l-4.6808 0.7019 0.000102 32.136 0.000102 32.136 10.25 0.1774c41.71 0.7219 77.65 34.737 77.735 73.573l0.0148 6.75h33.031c25.576 0 33.109-0.2821 33.373-1.25 0.18811-0.6875 0.8824-4.175 1.5429-7.75 14.816-80.196 140.34-79.773 155.91 0.5257l1.6422 8.4677h37.205 37.205l0.64403-3.75c9.1381-53.208 65.77-81.66 114.95-57.75 23.808 11.576 36.816 29.363 42.963 58.75l0.57524 2.75h32.936 32.936l0.59531-3.75c13.591-85.611 141.56-87.911 157.7-2.8351l1.2492 6.5851h37.169 37.169l1.1497-6.6022c14.518-83.37 147.04-82.649 156.65 0.8522l0.6616 5.75h41.768 41.768l1.1726-6.75c14.481-83.357 144.77-82.634 156.79 0.8708l0.7739 5.3792 37.513 0.2618 37.513 0.2618 1.0753-6.8291c8.3364-52.942 76.343-80.993 122.17-50.392 19.714 13.163 35.198 37.111 35.198 54.439v2.781l41.694-0.2609 41.694-0.261 1.3684-7.5c9.4559-51.829 73.815-78.704 120.53-50.328 19.182 11.652 36.718 38.186 36.718 55.558v2.7701h37.455 37.455l0.6161-3.75c14.565-88.653 141.13-87.852 157.99 1l0.5217 2.75h41.436 41.436l0.6161-3.75c14.652-89.183 140.61-87.988 158.07 1.5l0.4391 2.25h41.462 41.462l0.5217-2.75c7.7524-40.865 38.754-67.25 79.016-67.25 40.3 0 71.257 26.347 79.016 67.25l0.5217 2.75h41.462 41.462l0.5217-2.75c16.865-88.901 143.42-89.702 157.99-1l0.6161 3.75h37.205 37.205l1.6422-8.4677c15.548-80.17 141.31-80.594 155.92-0.5257 0.6523 3.575 1.34 7.0625 1.5281 7.75 0.2648 0.9678 7.7883 1.25 33.328 1.25h32.986l0.6161-3.75c14.22-86.557 140.47-88.16 157.48-2l1.1355 5.75h36.785 36.785l0.6847-8.25c3.0064-36.224 27.718-62.939 65.853-71.193l2.75-0.5952v-32.462-32.462l-2.75-0.5952c-40.097-8.6786-65.588-37.999-65.588-75.443 0-37.472 25.46-66.758 65.588-75.443l2.75-0.5952v-40.512c0-31.573-0.2758-40.583-1.25-40.832-0.6875-0.1758-4.4-1.0699-8.25-1.9868-77.675-18.498-77.294-130.95 0.5-147.63 3.025-0.6483 6.2875-1.3948 7.25-1.6588 2.2652-0.6214 2.7561-65.151 0.5-65.728-0.6875-0.1758-4.4-1.0699-8.25-1.9868-81.91-19.507-76.863-130.98 6.75-149.07l2.75-0.5952v-40.512c0-31.547-0.2766-40.594-1.25-40.88-0.6875-0.202-4.4-1.0832-8.25-1.9582-72.239-16.419-79.512-116.12-10.5-143.92 5.8827-2.3703 8.3769-3.1087 17.25-5.1071l2.75-0.6193v-36.512c0-28.347-0.2795-36.594-1.25-36.88-0.6875-0.202-4.4-1.094-8.25-1.9823-79.578-18.36-76.705-132.17 3.75-148.56l5.75-1.1713v-36.46c0-28.306-0.2796-36.543-1.25-36.828-0.6875-0.202-4.3747-1.0915-8.1939-1.9768-78.1-18.104-76.566-134.98 1.9439-148.1 8.3435-1.3938 7.5559 2.7505 7.2622-38.214l-0.2622-36.578-7.6926-1.8149c-80.998-19.11-79.136-132.04 2.4548-148.85l5.7623-1.1867-0.2623-36.576-0.2622-36.576-7.6926-1.8149c-81.007-19.112-79.154-132.04 2.4426-148.84l5.75-1.1841v-40.701-40.701l-6.5037-1.2337c-81.999-15.555-81.41-132.26 0.7537-149.18l5.75-1.1841-0.01-47.179-0.01-47.179-8.7446-0.2185z" fill="#f2f2f2"/>
<g id="g4150" transform="matrix(3.7311 0 0 3.7195 177.58 304.39)">
<rect id="rect4" height="533.33" width="800" y="-33.333" x="0" fill="#006c35"/>
<path id="path6" fill-rule="evenodd" fill="#fff" d="m344.83 92.629c-0.41365-0.01227-1.0325 0.21861-1.9 0.73333-1.9503 1.3073-5.815 5.334-5.9333 9.9667-0.11826 2.6136-0.61161 2.6034 1.1 4.2667 1.2364 1.7826 2.4712 1.6074 4.9666 0.3 1.4332-1.0558 1.9172-1.7293 2.4-3.4999 0.59454-2.9695-3.1248 1.405-3.6-1.9-0.83109-3.0684 1.5432-4.3305 3.8-7.3001 0.0517-1.3985 0.0767-2.5397-0.83333-2.5666zm36.333 0.2c-0.69701 0.09387-1.5496 0.98683-2.7333 3.1333-0.84828 2.2481-4.5072 5.6503-1.8667 12.667 2.1599 4.4489 3.0472 11.679 2.0667 19.733-1.4965 2.289-1.8379 3.0778-3.8 5.3666-2.7566 2.9642-5.7422 2.2063-8.0333 1.1-2.1406-1.4428-3.8227-2.1834-4.8-6.7667 0.17633-7.3055 0.60198-19.263-0.73334-21.801-1.9685-3.9296-5.2131-2.5203-6.6-1.3333-6.6637 6.0928-9.9551 16.381-11.967 24.566-1.8481 5.9659-3.8174 4.2405-5.2 1.8334-3.3662-3.1545-3.6027-27.822-7.6667-23.766-6.5089 18.603 3.7353 38.981 10.833 37.001 5.1208 2.1201 8.3701-7.6272 10.467-18.3 1.4342-2.9953 2.5302-3.3396 3.2667-1.8-0.18923 14.193 1.0177 17.359 4.6667 21.666 8.1398 6.2799 14.873 0.79563 15.401 0.26667 0.52791-0.5279 6.3333-6.3333 6.3333-6.3333 1.4106-1.4837 3.2744-1.574 5.2667-0.26666 1.9363 1.76 1.6877 4.7917 5.8334 6.9 3.4888 1.3955 10.939 0.3394 12.667-2.6667 2.3255-3.9855 2.8894-5.355 3.9667-6.8667 1.6599-2.2094 4.5-1.2312 4.5-0.53334-0.26449 1.2321-1.9332 2.4476-0.8 4.6667 1.974 1.4804 2.4324 0.52899 3.6 0.2 4.1296-1.974 7.2333-10.933 7.2333-10.933 0.18276-3.3416-1.7184-3.0881-2.9333-2.4-1.5848 0.96869-1.6819 1.2979-3.2667 2.2667-2.0191 0.29997-5.9304 1.6319-7.8667-1.3666-1.9772-3.6049-1.9884-8.6306-3.4999-12.267 0-0.26448-2.6416-5.7172-0.2-6.0667 1.2321 0.229 3.8818 0.91369 4.2999-1.3001 1.2924-2.1578-2.7885-8.2789-5.5667-11.366-2.4115-2.6469-5.7412-2.9696-8.9666-0.26667-2.2589 2.0782-1.9237 4.3991-2.3667 6.6-0.5752 2.5277-0.46526 5.6584 2.1 9 2.2545 4.4456 6.3504 10.149 5 18.199 0 0-2.38 3.8312-6.5666 3.3333-1.745-0.3806-4.5884-1.1358-6.1-12.3-1.1439-8.4506 0.28663-20.29-3.3001-25.834-0.80971-2.0918-1.505-4.1231-2.6667-3.9667zm-11.499 0.896c-1.0849 0.09472-2.2867 1.3584-3.2667 3.8-0.84076 1.8567-1.8677 11.567-1.7001 11.567-0.67089 2.8899 3.0195 4.1146 4.7 0.4 2.519-6.8099 2.5312-9.7112 2.7-12.599-0.39243-2.2002-1.3484-3.2614-2.4333-3.1667zm42.47 0.767c-1.1144 0.10101-2.0019 0.75344-2.3333 2.4-0.44404 3.8716-0.21712 5.9768 0.43334 9.2 0.49887 2.1492 3.6271 5.7476 5.1667 7.8334 7.3557 9.8874 14.433 19.822 21.267 30.1 1.0743 7.632 1.8615 15.098 2.3667 22.533 1.1074 16.303 1.4439 36.597 0.43333 53.766 3.0545 0.12042 7.9486-4.9322 9.6667-12.333 1.117-10.237-0.39786-31.125-0.5-37.167-0.072-2.5082-0.22639-5.5008-0.4-8.6334 7.9495 12.991 15.662 26.754 23.233 41.867 2.7599-1.3117 2.1482-16.851 0.53334-19.034-6.0594-13.042-14.431-25.916-17.1-30.867-0.96331-1.788-4.2446-6.7783-8.1333-12.533-0.71597-8.2117-1.494-15.167-2-17.267-1.2504-8.6806 3.5677 0.97893 2.9-4.0667-1.5633-8.6688-6.348-14.56-12-22.5-1.8224-2.5825-1.7863-3.1092-4.6 0.63333-1.6817 3.8152-1.659 6.9894-1.1667 9.9667-0.74006-1.0755-1.6548-2.3508-2.9666-3.9333-4.8811-4.1876-5.1822-4.4165-9.2333-7.8334-1.2774-0.90648-3.7094-2.3018-5.5667-2.1333zm125.87 1.3001c-0.54267-0.08437-1.134 0.18239-1.8 1.1667-1.273 1.1159-2.6419 3.1369-2.6 5.7333 0.30962 4.5747 1.1237 9.2587 1.4334 13.834 0.10911 0.61218 0.22421 1.2211 0.33333 1.8334-0.49153-0.62723-0.92068-1.1167-1.1667-1.3666-8.9171-9.3677 4.0971-1.531-1.7-8.7667-4.9026-5.3832-6.3371-7.0961-10.533-10.333-2.1041-1.36-3.3754-3.9586-4.0667 0.46667-0.27522 3.8877-0.56126 8.3897-0.3 11.667-0.015 1.8212 1.8712 5.2497 3.5 7.2667 5.9486 7.3085 12.025 15.085 18.133 23.2 1.2856 16.55 1.6284 31.722 2.9333 48.3-0.1849 7.0905-2.3659 16.508-4.4333 17.399 0 0-3.1572 1.8138-5.2667-0.2-1.5342-0.61605-7.6667-10.233-7.6667-10.233-3.1394-2.8781-5.2325-2.0557-7.4667 0-6.1605 5.9487-8.9468 17.091-13.133 24.767-1.0795 1.7126-4.1198 3.1706-7.4999-0.13334-8.585-11.729-3.5647-28.425-4.6334-24.133-7.6464 8.6172-4.26 22.896-2.5333 25.967 2.5212 5.0434 4.5608 8.2723 9.4667 10.767 4.4683 3.2888 7.9475 1.2363 9.8667-1.0667 4.4962-4.6596 4.5562-16.576 6.6667-18.933 1.4804-4.3307 5.1906-3.5858 7-1.6667 1.7536 2.5212 3.824 4.1615 6.4 5.5333 4.194 3.6995 9.1996 4.3716 14.133 1 3.3716-1.8912 5.5594-4.349 7.5333-9.2 2.118-5.6646 1.0707-35.351 0.6-51.867 3.1676 4.462 6.294 9.0206 9.4 13.633 1.3634 14.497 1.9821 28.774 1.5333 42.466-0.32149 2.7222 9.4999-8.1276 9.4334-13.267-0.0443-4.4969 0.009-8.5724 0-12.367 4.7637 7.606 9.3749 15.339 13.733 23.167 2.7008-1.431 1.775-16.723 0.0667-18.833-4.5633-7.6572-10.407-15.932-14.933-22.334-0.89455-8.0799-2.1125-17.613-2.6667-20.533-0.86336-4.5542-1.7281-11.395-3.0334-16.8-0.35805-2.1105-1.4387-8.8517-1.1-9.5 0.53219-1.5084 2.5432 0.0482 3.5333-1.7 1.4826-1.6159-5.1391-18.771-8.5-23.667-1.2084-2.1943-3.3939-1.435-6.1 2.1333-2.5094 2.3481-1.5913 7.705-0.63334 12.8 2.4882 12.986 4.7092 26.21 6.4667 39.401-3.2534-4.8366-7.224-10.689-11.134-16.333-0.10506-0.54428-0.5-2.539-0.5-2.5666-0.00002-0.23331-0.53876-10.623-1-13.1-0.0806-1.0053-0.3203-1.2946 0.73334-1.1667 1.1171 0.93967 1.2689 0.99036 1.9667 1.3 1.1278 0.20642 2.1139-1.7003 1.4334-3.4667-3.4888-6.4347-6.9779-12.898-10.467-19.333-0.41984-0.4134-0.89066-0.84894-1.4334-0.93333zm-324.83 0.33333c-1.9331-0.05525-4.0659 1.143-3.2333 3.4667-0.48488 1.2665 3.784 5.5476 4.5333 7.8999 0.67195 1.6751-0.66649 7.0689 0.73333 7.5667 1.2869 0.55799 3.0592-3.7339 3.7333-7.7 0.37307-2.1728 0.0908-9.6088-4.9666-11.134-0.2591-0.05856-0.52384-0.09205-0.8-0.09995zm370.04 0.04267c-0.44066 0.04373-0.97733 0.75586-1.8 2.5001-1.9782 3.2404-2.659 9.0426-1.8667 14.166 4.7629 32.217 8.3023 63.412 9.0334 91.967-0.40962 2.7104-0.5292 4.1521-1.8 7.5667-2.8115 3.6038-5.9122 8.1218-8.8333 10.3-2.9201 2.1772-9.1347 4.2529-11.167 5.8667-6.4465 3.7264-6.4789 8.0118-1.2667 8.1666 8.9827-1.0429 19.612-1.7798 26.933-12.833 1.9589-3.0974 4.2656-11.494 4.3667-16.634 0.68484-30.13-0.38553-59.59-4.9-81.366-0.28921-2.1213-1.2258-6.9969-0.86667-7.6333 0.58164-1.4912 3.5205 0.14925 4.5666-1.5667 1.5354-1.5676-7.6004-13.265-10.8-18.267-0.63923-1.2561-1.0334-2.2896-1.6-2.2334zm-94.199 0.5c-0.37092 0.064-0.91855 0.62853-1.9333 1.9667-2.5093 8.2044-3.3913 14.905-2.4333 20 6.4454 33.636 13.05 64.281 12 96.3 3.0566 0.0204 6.5905-6.9923 8.1-13.933 0.82677-9.5612-0.55164-15.38-0.8-21.001-0.24726-5.6197-6.3615-51.215-7.6-55.467-1.4944-8.0399 5.9451-1.0576 5.1333-5.7333-2.5717-5.8949-8.9906-14.479-10.999-19.6-0.75529-1.3715-0.84846-2.64-1.4667-2.5333zm-229.37 0.63333c-0.79211 0.13722-1.5565 0.78993-1.8334 1.8667-0.17418 0.70529 0.3053 1.8785-0.33333 2.2334-0.36662 0.36985-1.7581 0.12126-1.7001-1.8334 0-0.6225-0.45702-1.2721-0.73333-1.6667-0.27739-0.1817-0.46458-0.23333-0.96667-0.23333-0.61175 0.02475-0.59788 0.18608-0.93333 0.7-0.14933 0.52267-0.34133 1.0347-0.34133 1.632-0.0764 0.69562-0.35492 0.9312-0.86667 1.0333-0.57198 0-0.43661 0.0623-0.9-0.23334-0.27523-0.30103-0.6-0.41941-0.6-0.93333 0-0.53218-0.13981-1.3818-0.3-1.7333-0.24297-0.32038-0.62693-0.48712-1.0667-0.6-2.3965 0.0085-2.571 2.7624-2.4333 3.8-0.17954 0.19567-0.2684 5.0765 3 6.4333 4.3876 2.0922 12.615 1.2077 12.267-5.8667 0.00001-0.62573-0.13764-2.7269-0.2-3.3-0.4478-1.0429-1.2746-1.4372-2.0667-1.3001zm58.867 0.06667c-1.5164 0.07733-2.855 0.5119-4 1.0999-2.9083 2.7846-3.5901 7.2488-1.3001 10.033 2.2288 1.0526 4.4525 3.2959 2.9666 4.5333-6.3026 6.7318-22.706 17.981-23.533 20.033-0.006 0.0168-0.0298 0.0513-0.0333 0.0667-0.002 0.0147 0.00016 0.0533 0 0.0667 0.0005 0.006-0.001 0.0273 0 0.0333 0.005 0.017 0.0228 0.0529 0.0333 0.0667 0.004 0.004 0.0286 0.0294 0.0333 0.0333 0.005 0.003 0.0274-0.003 0.0333 0 0.006 0.003 0.0261 0.0309 0.0333 0.0333 0.007 0.002 0.0249-0.002 0.0333 0 0.002 0.002 0.0305 0.0309 0.0333 0.0333 0.83356 0.5591 11.098 0.54588 12.234 0.0333 0.009-0.004 0.0265-0.0289 0.0333-0.0333 0.003-0.002 0.0305 0.002 0.0333 0 0.002-0.002-0.002-0.031 0-0.0333 3.5275-1.2998 20.267-20.433 20.267-20.433-0.86764-0.7429-1.6668-1.2904-2.5333-2.0333-0.92892-0.80419-0.83538-1.5948 0-2.4 4.1457-2.4126 2.832-7.7207 0.66667-10.133-1.795-0.80475-3.4836-1.0773-5-1zm153.87 0.06667c-0.44066 0.04373-0.97732 0.72253-1.8 2.4667-1.9782 3.2404-3.3226 8.8834-3.1667 14.166 4.2854 29.668 5.5993 55.631 8.4 85.3 0.22794 2.8696-0.19271 7.0379-2.1 8.7-7.055 7.3668-17.228 16.452-28.3 20.634-1.1913 1.3375 2.9619 7.0387 8.3333 7.0334 8.9827-1.0429 16.878-6.0845 24.201-19.366 1.9579-3.0975 5.3989-9.7276 5.5-14.867 0.68485-30.13-1.5188-53.556-6.0333-75.333-0.28922-2.1212-0.0925-4.6302 0.26667-5.2667 0.58164-0.69453 2.5539 0.0159 3.6-1.7001 1.5352-1.5676-4.1004-14.565-7.3001-19.567-0.63923-1.2561-1.0334-2.2562-1.6-2.2zm-238.37 0.90667c-1.2398 0.14496-2.4061 1.1543-2.9666 2.5001-0.20751 4.7585-0.23541 9.5146 0.3 13.9 2.1643 7.6915 2.8496 14.457 3.9 22.334 0.29135 10.55-6.0925 4.5638-5.8-0.66667 1.474-6.7938 1.0762-17.489-0.23334-20.201-1.0386-2.7104-2.2412-3.3795-4.7667-2.9333-2.0051-0.12256-7.1852 5.5216-8.6334 14.867 0.00001-0.00001-1.2065 4.7963-1.7333 9.0667-0.70851 4.8262-3.9057 8.2441-6.1333-0.66666-1.9256-6.4766-3.109-22.434-6.3333-18.7-0.92354 12.46-2.0202 34.384 8.5666 36.634 12.805 1.231 5.7317-21.647 10.367-25.801 0.87623-2.0525 2.5-2.089 2.6334 0.5v19.434c-0.11719 6.3174 4.0402 8.1948 7.2667 9.5 3.3577-0.25912 5.584-0.16733 6.9001 3.0999 0.52467 11.202 1.0753 22.432 1.6 33.633 0 0 7.7624 2.2306 8.1333-18.9 0.37201-12.407-2.4707-22.819-0.8-25.233 0.0591-2.3717 3.0992-2.4891 5.2-1.3333 3.3469 2.361 4.8318 5.2666 10.033 4.1001 7.9151-2.1804 12.683-6.0223 12.8-12.1-0.46231-5.7756-1.1304-11.557-3.6333-17.333 0.34943-1.0504-1.515-3.7829-1.1667-4.8333 1.4224 2.2276 3.5743 2.0428 4.0667 0-1.3472-4.4393-3.4445-8.6927-6.8333-10.533-2.8008-2.4674-6.8991-1.9456-8.4 3.2-0.69562 5.9294 2.1489 12.957 6.4667 18.7 0.91709 2.2438 2.1999 5.9757 1.6333 9.3333-2.2976 1.3106-4.5756 0.76533-6.5-1.2667 0.00001-0.00001-6.3-4.7163-6.3-5.7666 1.6718-10.704 0.3601-11.93-0.56666-14.9-0.64722-4.1006-2.5905-5.3992-4.1666-8.2-1.5761-1.6707-3.7141-1.6707-4.7333 0-2.7846 4.8273-1.4782 15.191 0.53333 19.834 1.4536 4.2693 3.6827 6.9333 2.6334 6.9333-0.86441 2.4126-2.6669 1.8513-3.9667-0.93334-1.8557-5.7552-2.2334-14.333-2.2334-18.199-0.55692-4.794-1.1778-15.035-4.3333-17.633-0.84196-1.1468-1.8357-1.546-2.8-1.4334zm44.966 0.06667c-0.63545 0.08032-1.3379 0.44208-2.1666 0.63333-2.7222 0.86656-5.2708 3.2199-4.4667 7.8 3.2179 19.554 5.3154 34.478 8.5333 54.033 0.49459 2.29-1.4251 5.3086-3.9 5-4.2081-2.8469-5.2525-8.6129-12.433-8.3667-5.1983 0.0624-11.126 5.7189-11.867 11.167-0.86655 4.3296-1.1752 9.0241 0 12.8 3.6533 4.393 8.0295 3.9246 11.867 2.9333 3.1555-1.2988 5.7518-4.4085 6.8667-3.6667 0.003 0.003 0.0305-0.004 0.0333 0 0.003 0.004-0.003 0.0288 0 0.0333 0.6881 1.2028-0.0648 11.374-14.867 19.233-9.0966 4.0845-16.337 5.0604-20.234-2.3667-2.4136-4.6414 0.17559-22.319-5.7666-18.234-17.573 45.298 41.171 51.621 47.733 1.8667 0.425-1.4036 1.7196-2.812 2.6334-2.4667 0.40096 0.17075 0.76798 0.71522 0.9 1.7333-1.3622 45.051-45.446 48.139-52.933 33.967-1.8557-3.3405-2.414-10.777-2.6-15.233-0.33938-2.696-1.0159-4.2511-1.8-4.8667-1.7861-1.3421-4.1863 2.1579-4.6999 8.2334-0.7429 4.8886-0.53334 6.2307-0.53334 10.933 2.3514 35.583 59.081 20.294 68.3-9.0999 4.5639-15.196-0.0929-26.659 1.4334-28.066 0.0132-0.0111 0.0526-0.0237 0.0667-0.0333 0.0145-0.009 0.0512-0.0258 0.0667-0.0333 0.0159-0.006 0.0498-0.0279 0.0667-0.0333 0.052-0.0139 0.13916-0.0325 0.2-0.0333 5.6316 6.0659 13.534 0.7707 15.266-1.3333 0.74291-1.0526 2.6013-1.7278 3.8999-0.36667 4.393 3.1577 12.093 1.6692 13.7-3.8999 0.92891-5.4456 1.714-11.052 1.9-16.866-2.8616 0.88845-5.1707 1.5537-6.1001 2.5333-0.22132 0.24169-0.38503 0.5098-0.43333 0.8-0.24835 1.6095-0.48498 3.2239-0.73333 4.8333-0.0266 0.13304-0.0693 0.25595-0.13334 0.36666-0.12196 0.19756-0.32358 0.37975-0.53333 0.5-1.0116 0.55236-2.7757 0.23649-2.8667-1.2333-1.3611-6.1885-6.9628-6.9934-10.367 2.6-2.29 1.8557-6.4657 2.2179-6.9-0.56666 0.55694-6.4357-2.0362-7.2996-7.2333-4.2667-1.6708-12.748-3.3282-24.918-5-37.666 2.1664-0.0624 4.153 1.5083 6.1333-0.96667-2.1431-6.6653-6.6781-20.227-9.2333-21.5-0.0201-0.0096-0.0468-0.0256-0.0667-0.03328-0.11601-0.1392-0.25328-0.26742-0.36667-0.36667-0.0471-0.04-0.11979-0.09952-0.16667-0.13333-0.0468-0.03253-0.12001-0.07328-0.16666-0.09995-0.10262-0.05632-0.23087-0.10219-0.33334-0.13333-0.23296-0.06603-0.45929-0.09707-0.7-0.06667zm175.3 0.09995c-2.2481-0.06667-4.7357 1.3501-3.7666 4.1666-0.56444 1.5363 4.8302 6.7477 5.7 9.6 1.5654 4.3823-1.1955 8.5625 0.43334 9.1667 1.4988 0.67626 3.584-4.5243 4.3667-9.3333 0.90418-3.8877-1.8693-11.855-5.8-13.5-0.3013-0.07093-0.61217-0.09045-0.93334-0.09995zm-136.58 4.801c1.0238-0.10432 2.2608 0.83634 2.8667 2.1666 0.64627 1.419 0.32212 2.7748-0.73334 3.0334-1.0554 0.25852-2.4204-0.68098-3.0667-2.1-0.64625-1.419-0.32213-2.8081 0.73333-3.0667 0.0659-0.0162 0.13174-0.0263 0.2-0.0333zm253.33 6.5666c-2.0496-0.0718-4.2833 1.4844-3.4 4.5333-0.51392 1.6632 4.3743 7.3122 5.1667 10.4 0.71281 2.1975-1.0848 9.2797 0.4 9.9333 1.3665 0.73216 3.2873-4.8931 4-10.1 0.39565-2.8501-1.7166-12.852-5.3-14.634-0.2747-0.0767-0.57387-0.12308-0.86667-0.13334zm-140.06 3.4667c0.18747 0.8358 0.37483 1.6772 0.5 2.5333 0.42008 1.8472 0.7822 3.6819 1.1667 5.5-1.618-2.228-2.9573-4.028-3.5333-4.6667-3.6611-4.3509 0.0824-2.8572 1.8667-3.3666zm32.267 15.867c-0.79211 0.13721-1.5565 0.82325-1.8334 1.8999-0.17417 0.70528 0.33863 1.8452-0.3 2.2-0.36661 0.36985-1.7914 0.15458-1.7333-1.8-0.00001-0.6225-0.45702-1.3054-0.73333-1.7-0.27737-0.18171-0.46458-0.23333-0.96667-0.23333-0.61177 0.0247-0.5979 0.18609-0.93333 0.7-0.14191 0.52359-0.33334 1.0399-0.33334 1.6333-0.0764 0.69561-0.32156 0.93119-0.83333 1.0333-0.57197 0-0.46995 0.0623-0.93333-0.23333-0.27525-0.30103-0.6-0.41943-0.6-0.93334 0.00001-0.53219-0.13981-1.3818-0.3-1.7333-0.24299-0.32039-0.62695-0.45377-1.0667-0.56667-2.3965 0.009-2.5376 2.7292-2.4 3.7666-0.17956 0.19567-0.30174 5.1099 2.9666 6.4667 4.3876 2.0922 12.649 1.1744 12.3-5.8999 0.00001-0.62573-0.17098-2.7269-0.23334-3.3001-0.44779-1.0429-1.2746-1.4372-2.0667-1.3zm-147.33 1.4667c-0.54101-0.0551-1.2502 0.14348-2.0667 0.63334-3.8801 2.0987-5.3825 8.3242-2.9666 11.967 2.2568 3.2082 5.8248 2.0333 6.3 2.0333 3.8016 0.4752 6.0667-7.1333 6.0667-7.1333-0.00001 0 0.11448-2.1393-4.4 1.8999-1.8997 0.35588-2.1581-0.33024-2.6334-1.4-0.39566-1.9793-0.31064-3.9862 0.6-5.9667 0.42065-1.1873 0.002-1.9414-0.9-2.0333zm208.27 0.96667c-2.154-0.10475-4.4467 1.2901-5.0334 4.2334 0.009 1.7363 0.78387 2.6906 0.63333 4.2667-0.22469 0.90096-1.153 1.4934-3.3666 0.43334 0.34619-0.31824-1.4334-2.8333-1.4334-2.8333-1.7267-1.0515-4.0324 0.0571-5.5333 1.0333-0.82571 1.5009-1.4365 4.0735-0.5 6.7 2.4782 4.579 10.979 12.393 15.034 12.467 0.0753-4.1285 0.47637-9.6187 0.7-13.034 0.0957-1.2891 0.39803-2.7098 1.6333-3.0334 1.2342-0.32254 3.3763 1.2418 3.4-0.0999-0.2247-2.6266-0.74964-6.5024-2.2334-8.3333-0.75999-1.1261-2.0076-1.7372-3.3-1.8zm-172.4 14.35c-0.0573 0.021-0.11401 0.07-0.16667 0.1-0.0258 0.0157-0.0739 0.0479-0.0999 0.0667-0.42901 0.32206-0.93525 1.0653-2.0667 1.8667-1.9084 2.1707-2.2504 3.6822-2.1333 8.0333 0.10857 0.46024 3.6229 10.231 6.6 17.1 2.0072 7.1389 3.8643 15.313 2.5 23.034-4.6994 10.206-14.147 19.36-23.266 24.333-4.6461 1.488-8.6586 0.98127-9.7333-0.0333-0.009-0.009-0.0256-0.0252-0.0333-0.0333-2.6682-1.7939-2.7294-4.9873-2.5666-5.5333-0.00005-0.003 0.00018-0.0295 0-0.0333 0.006-0.006 0.0272-0.0275 0.0333-0.0333 7.6947-5.3596 16.484-9.6975 23.366-24.166 2.032-5.5294 2.6524-8.8495 0.63333-17.399-0.7871-3.1859-1.7594-5.8076-3.9333-8.0667 0.005-0.006 0.0276-0.0274 0.0333-0.0333 1.3099-0.62668 4.7084 1.877 5.2333 0.3-0.80419-4.0822-3.5692-9.5627-6.7-12.367-2.7415-2.49-5.7239-2.7782-8.2334-0.5-2.8266 1.5729-3.4277 7.2221-2.0667 12.166 1.5117 3.7221 5.5928 4.3751 8.5 11.867-0.00005 0.007-0.00025 0.0308 0 0.0333 0.0606 0.46972 0.99772 5.5919-0.46666 7.6667-1.1884 3.7058-16.452 15.743-17.534 16.467-0.0119 0.012-0.0884 0.0554-0.0999 0.0667-0.006 0.006-0.0276 0.0277-0.0333 0.0333-0.003 0.002-0.0262 0.0261-0.0333 0.0333-0.003 0.003-0.0303 0.0299-0.0333 0.0333-0.003 0-0.0296 0.00018-0.0333 0-0.002-0.00008-0.0257-0.00012-0.0333 0-0.006-0.005-0.0274-0.0271-0.0333-0.0333 0.00026-0.003-0.00007-0.0303 0-0.0333-0.006-0.0115-0.0273-0.0546-0.0333-0.0667-0.046-0.30053 0.0348-1.0657 0-2.3-0.10026-2.2554 0.83322-7.3578 0.76667-8.2334 0.00003-0.003-0.0001-0.03 0-0.0333-0.006-0.006-0.0271-0.0274-0.0333-0.0333 0.00004-0.003-0.00017-0.0297 0-0.0333-0.007 0.00015-0.0322 0.00009-0.0333 0-5.0456 3.2577-6.7119 13.244-7.6333 16.201-12.773 8.8257-27.279 15.392-35.633 24.333-4.351 6.7949 29.978-7.8024 33.967-9.5667 0.0342 0.0257 0.0684 0.0672 0.0999 0.1 0.75829 0.83452 0.82305 3.7443 3.1 6.3667 3.5683 4.8338 11.153 7.8106 18.533 5.9667 12.377-4.4736 19.507-12.909 26.767-22.267 1.0375-1.5094 2.6637-2.6988 4.1666-1.5333 4.9886 11.168 19.372 19.115 37.967 19.934 4.3027-5.2326 2.2449-7.8055 0.5-8.9-0.5375-0.35719-9.2478-3.753-10.6-7.1333-0.85151-3.1458 1.2188-5.9358 5.3666-8.0333 11.939-1.444 23.676-3.0478 35.034-6.7 0.11503-3.8157 2.3626-9.5218 3.8667-12 1.0444-1.7195 1.7158-1.8897 1.9667-2.1333 0.009-0.009 0.0262-0.0245 0.0333-0.0333 0.003-0.004 0.0303-0.0287 0.0333-0.0333 0.006-0.005 0.0273-0.0274 0.0333-0.0333 0.00002-0.0114 0.00045-0.0548 0-0.0667 0.006-0.0755-0.00052-0.20557-0.0333-0.33333l-1.9333-1.1333-38.1-0.16666c-0.47065-0.1812-0.82059-0.36306-1.0333-0.53334-0.0162-0.0135-0.0522-0.0532-0.0667-0.0667-0.006-0.006-0.027-0.0267-0.0333-0.0333-0.006-0.006-0.0278-0.0268-0.0333-0.0333-0.005-0.0116-0.0281-0.055-0.0333-0.0667-0.003-0.003-0.0295-0.0298-0.0333-0.0333 0.00007-0.003-0.00031-0.0298 0-0.0333-0.003-0.003-0.0294-0.0298-0.0333-0.0333 0.00002-0.003-0.00019-0.0298 0-0.0333 0.00001-0.003-0.00014-0.0298 0-0.0333 0-0.003-0.00008-0.0298 0-0.0333-0.00035-0.005 0.00013-0.0283 0-0.0333 0.00014-0.002 0.0001-0.0262 0-0.0333-0.00005-0.003 0.00011-0.0298 0-0.0333-0.00006-0.003 0.00015-0.0298 0-0.0333-0.00007-0.003 0.00021-0.0298 0-0.0333 0.006-0.006 0.0271-0.0273 0.0333-0.0333 0.009-0.0176 0.0218-0.0493 0.0333-0.0667 0.18602-0.25067 0.63682-0.48695 1.2-0.7 9.0978-1.2396 25.261-3.8891 26.334-19.434-0.16772-8.0968-3.4648-13.398-13.399-14.867-7.3002 0.56446-12.507 7.6257-11.667 15.401-0.3494 2.0932 0.70833 6.2012-1.4334 6.6667-14.003 1.2794-29.287 10.053-29.801 16.333-0.003-0.00055-0.0304 0.00015-0.0333 0-0.005 0.006-0.0275 0.0273-0.0333 0.0333-0.0108 0.005-0.0491 0.0246-0.0667 0.0333-0.0116-0.00016-0.0549 0.00043-0.0667 0-0.0225 0.007-0.077 0.0274-0.1 0.0333-0.006 0.00058-0.0247-0.00011-0.0333 0-0.019-0.0003-0.0541 0-0.0667 0-0.006-0.0002-0.0247-0.00021-0.0333 0-0.0141 0.00036-0.055 0.00057-0.0667 0-0.0362-0.007-0.10197-0.0254-0.13333-0.0333-0.91077-0.25295-2.0841-1.7559-1.9-3.8667-0.53327-10.855-4.0664-23.139-9.6-32.599-1.9747-1.9742-2.8351-2.7742-3.4-2.8667-0.0182-0.002-0.049 0.00086-0.0667 0-0.0233-0.00009-0.07 0.00027-0.0999 0-0.005 0.00015-0.0282-0.00042-0.0333 0-0.003-0.00009-0.0302 0.00027-0.0333 0-0.004 0.001-0.0292-0.001-0.0333 0zm36.467 5.7333c-0.79211 0.13721-1.5565 0.78992-1.8334 1.8667-0.17415 0.70529 0.33863 1.8785-0.3 2.2334-0.36662 0.36985-1.7914 0.15459-1.7333-1.8 0-0.6225-0.45702-1.3054-0.73333-1.7-0.27738-0.1817-0.43125-0.23334-0.93334-0.23334-0.61175 0.0247-0.63123 0.18608-0.96666 0.7-0.14193 0.52358-0.33334 1.0399-0.33334 1.6333-0.0764 0.69562-0.32156 0.9312-0.83333 1.0333-0.57198 0-0.43662 0.0623-0.9-0.23334-0.27523-0.30103-0.63333-0.41941-0.63333-0.93333-0.00001-0.53219-0.10646-1.3818-0.26667-1.7333-0.24298-0.32039-0.66028-0.45378-1.1-0.56667-2.3965 0.009-2.5376 2.7292-2.4 3.7666-0.17955 0.19568-0.30174 5.1099 2.9666 6.4667 4.3876 2.0922 14.844 0.86043 12.3-5.9-0.00001-0.62572-0.17098-2.7269-0.23333-3.3-0.44779-1.0429-1.2746-1.4372-2.0667-1.3zm147.17 6.0333c-0.11029-0.0198-0.23718-0.0122-0.36667 0.0333 0 0-20.33 14.463-20.833 14.966-2.0159 1.7922-1.0074 8.0945 0 7.3666 1.4568 0.56014 21.924-13.31 21.534-14.933 0.89202 0.0524 1.3211-7.1352-0.33333-7.4334zm-127.96 2.144c0.82972-0.088 1.9181 0.19352 2.9666 0.8 1.5176 0.87779 2.4531 2.2034 2.3333 3.1667-0.004 0.0261 0.005 0.0745 0 0.0999-0.006 0.0254-0.0591 0.0752-0.0667 0.1-0.009 0.0245-0.0236 0.076-0.0333 0.1-0.006 0.0158-0.0257 0.0512-0.0333 0.0667-0.007 0.0154-0.0246 0.0516-0.0333 0.0667-0.0497 0.0814-0.13182 0.16681-0.2 0.23333-0.72955 0.68136-2.4134 0.58437-4-0.33333-1.5038-0.8698-2.4331-2.2059-2.3333-3.1667 0.003-0.0262 0.0285-0.0742 0.0333-0.0999 0.0252-0.11923 0.0724-0.22799 0.13334-0.33333 0.0218-0.0376 0.041-0.0988 0.0667-0.13333 0.005-0.006 0.0278-0.0267 0.0333-0.0333 0.0448-0.0523 0.1125-0.12223 0.16667-0.16667 0.24182-0.19018 0.58455-0.32613 0.96667-0.36667zm-178.04 3.6667c-10.534 0.19246-25.961 13.808-26.367 21.366 11.116-5.338 22.034-10.476 33.333-16-1.8235-2.7222-0.11054-5.1752-6.9666-5.3666zm34.133 4.7333c1.0326 0.0116 2.1217 0.52152 2.6999 1.9667 0.52037 1.3256 0.0246 2.7119-0.6 3.4-0.003 0.005 0.003 0.0281 0 0.0333-0.01 0.0154-0.0229 0.0523-0.0333 0.0667-0.44213 0.56965-1.9943 0.33334-3.0999 0.33334-1.3375-0.0591-1.9969-0.27864-2.8-1.3666-0.38381-1.2095 0.785-2.398 1.3-3.3 0.005-0.009 0.0281-0.025 0.0333-0.0333 0.0559-0.084 0.14721-0.18481 0.23333-0.26667 0.4-0.36636 1.0917-0.70883 1.8334-0.8 0.1442-0.0177 0.28581-0.035 0.43333-0.0333zm267.9 4.192c-1.8731 0.23097-3.6536 2.0021-2.8333 4.8333-0.51392 1.6632 2.541 7.4789 3.3333 10.567 0.71282 2.1976-0.91809 8.413 0.56667 9.0667 1.3665 0.73217 4.9602-3.6899 4.8333-9.2333 0.39564-2.8501-1.0166-13.351-4.6-15.134-0.41205-0.1151-0.86777-0.1533-1.3001-0.1zm-227.52 10.28c-1.6555 0.11572-3.1327 1.0006-2.4667 3.3333-0.0999 1.6923 4.6774 3.75 4.9666 7.6667 0.68271 1.6148-1.0213 6.7861 0.4 7.2667 1.3052 0.53756 3.1163-3.5747 3.8-7.4 0.37844-2.0955-1.6392-9.4248-5.0667-10.733-0.52601-0.11316-1.0815-0.1719-1.6333-0.13333zm68.1 9.3001c0.12562-0.009 0.23638 0.00076 0.36666 0 0.0219-0.00014 0.0447-0.0001 0.0667 0 4.2446 1.1536 10.502 1.2732 15.934 1.8334 4.4242 0.28061 6.6102 3.7443 2.4667 5.2-4.0877 1.3999-8.015 2.4932-8.0333 8.4 0.53735 2.926 0.42352 4.4614-0.0333 5.1667-0.0357 0.0529-0.0936 0.12322-0.13333 0.16667-0.005 0.006-0.0275 0.0275-0.0333 0.0333-0.006 0.005-0.0273 0.0278-0.0333 0.0333-0.006 0.005-0.0272 0.0283-0.0333 0.0333l-0.0333 0.0333c-0.0117 0.005-0.0548 0.0276-0.0667 0.0333-0.0594 0.0369-0.13526 0.0763-0.2 0.1-0.0572 0.0194-0.1392 0.0231-0.2 0.0333-0.97168 0.1425-2.3829-0.78412-3.4334-1.3333-2.5201-1.8095-9.5926-6.1926-10.6-15.6-0.14334-2.1229 1.4458-3.9535 4-4.1333zm-166.34 7.2333c-0.26516 0.009-0.79579 0.80065-1.5 1.7-6.267 9.9837-6.8243 24.886-3.3666 29.333 1.8374 2.1008 4.867 3.0246 7.0999 2.3667 3.9372-1.7073 5.6676-9.6821 4.7333-12.599-1.3138-2.0568-2.355-2.3826-3.6667-0.63334-2.7706 5.6251-3.9236 1.7771-4.1666-1.3666-0.42469-5.9616 0.15276-11.452 0.8-15.799 0.34457-2.2283 0.33182-3.0083 0.0667-3zm213.5 13.109c-0.46602-0.025-0.96297 0.0479-1.4667 0.3-0.0989 0-4.4862 2.9669-5.9 5.0334-0.86226 0.65584-0.76449 1.2259-0.5 2.3667 0.67196 1.545 1.8561 1.0601 3.2 0.33333 1.7837-0.24299 2.6462 0.92501 2.5001 3.0667-0.82356 2.6706 0.36665 3.6656 0.36666 3.8334 0 0.16773 1.7174 1.6418 3.7333 0.46667 4.2554-1.6245 6.9072-3.2045 12.866-4.5 1.5644-0.0311 1.4739-4.2172-1-4.3667-3.2275 0.16234-6.2058 0.32721-9.4334 2.8667-1.9858 0.45909-2.3259-0.7496-2.7667-1.8334-0.50423-2.6889 1.1355-4.5841 0.8-6.6 0.0895 0.0886-1.0019-0.89178-2.4-0.96667zm136.7 5.1c-0.7917 0.0247-1.6254 0.13442-2.8333 0.23333-1.3062 0.2774-1.7624 0.84966-2 2.4333 0.0935 2.4018 1.5626 2.2829 3.0667 3.2333 0.87088 1.1085 1.4374 2.112-0.0667 3.9333-1.4256 1.3062-2.4411 2.0271-3.8667 3.3333-0.67307 1.1483-1.0923 2.9119 0.96667 3.4667 3.8016 1.0687 12.599-4.6474 12.599-4.7667 1.4256-1.0687 0.95268-3.0999 0.83334-3.0999-0.83106-0.95042-2.7066-0.37959-3.9667-0.53334-0.59994 0-2.5698-0.29161-1.6333-2.0333 0.78163-1.0837 1.07-1.7314 1.6-3.0667 0.59347-1.3062 0.0718-2.1872-2.0667-2.9001-1.0891-0.19782-1.8416-0.25806-2.6334-0.23333zm-57.109 115.63c-0.009 0.004-0.025 0.0275-0.0333 0.0333-6.3229 1.6224-6.1262 8.1866-2.0667 11.067-66.767 0-169.23-1.1333-191.2-1.1333-12.293 0-51.186-1.4667-51.934-1.4667 8.3409 12.199 20.423 14.684 36.234 14.933 29.655 0 167.06-0.36666 206.17-0.36666-2.7799 4.936 0.25222 12.879 2.4333 14.334 0.0463 0.0298 0.12127 0.0763 0.16667 0.0999 0.0814 0.0405 0.18873 0.0799 0.26667 0.0999 0.0258 0.006 0.0747-0.003 0.0999 0 2.5889 0.61066 3.7281-1.2636 4.6-2.6334 4.1997 0.37017 27.837 0.71207 30-0.0333 0.007-0.003 0.0261-0.0303 0.0333-0.0333 1.4633 2.1535 2.9154 4.1882 5.7001 3.8334 4.8736-1.045 8.7119-1.5755 8.8333-11.467 0 0-0.49818-16.855-11.567-15.799-2.619 0.39565-9.9667 1.1333-9.9667 1.1333-8.5032-1.0117-14.74-1.1151-24.3-1.4667 0.88238-1.1202 2.4403-5.657 0.53333-7.3-0.4973-0.41352-1.2391-0.64376-2.2667-0.56667-0.007 0.00053-0.026-0.00009-0.0333 0-0.0145-0.00073-0.0525 0.002-0.0667 0-0.007-0.002-0.0264-0.0312-0.0333-0.0333-0.0274-0.01-0.0738-0.0172-0.0999-0.0333-0.0518-0.0352-0.11918-0.1098-0.16666-0.16667-0.0117-0.0148-0.0552-0.0507-0.0667-0.0667-0.48343-0.70386-0.74739-2.4296-1.0667-2.8667-0.004-0.004-0.0295-0.0289-0.0333-0.0333-0.004-0.003-0.0294-0.0301-0.0333-0.0333-0.0116-0.007-0.0548-0.0296-0.0667-0.0333-0.004-0.00038-0.0293-0.00006-0.0333 0-0.004 0.00097-0.0292-0.001-0.0333 0zm4.5333 24.1c0.0116-0.005 0.0215 0.005 0.0333 0 9.7407 0.47521 18.893 0.0914 28.634 0.56667 1.5438 1.3123 0.77168 4.3183-0.23334 4.8667-0.045 0.0225-0.12095 0.0544-0.16666 0.0667-0.0367 0.009-0.0965-0.001-0.13334 0-0.0368-0.00075-0.0965 0.009-0.13333 0-3.1674-0.0796-4.9994-0.15378-8.1666-0.23333-0.005-0.15757-0.0229-0.32754-0.0667-0.46667-0.75062-2.2246-6.1875-2.0758-7.4667-0.33333-0.0177 0.0251-0.0507 0.0742-0.0667 0.0999-0.0205 0.0347-0.0494 0.0976-0.0667 0.13334-0.0206 0.045-0.0514 0.11987-0.0667 0.16666-0.0199 0.066-0.0244 0.16397-0.0333 0.23334-0.009 0.0798-0.0404 0.18254-0.0333 0.26666-4.2758 0.51392-8.1242-0.14196-12.4-0.3-1.2545-1.5617-1.108-4.3876 0.36667-5.0667z"/>
</g>
</g>
</svg>
